<svg width="376" height="234" viewBox="0 0 376 234" fill="none" xmlns="http://www.w3.org/2000/svg">
<g opacity="0.51">
<rect x="0.5" y="0.730408" width="17.8571" height="17.8571" stroke="white" stroke-opacity="0.06" stroke-width="0.357143"/>
<rect x="18.3571" y="0.730408" width="17.8571" height="17.8571" stroke="white" stroke-opacity="0.06" stroke-width="0.357143"/>
<rect x="36.2143" y="0.730408" width="17.8571" height="17.8571" stroke="white" stroke-opacity="0.06" stroke-width="0.357143"/>
<rect x="54.0714" y="0.730408" width="17.8571" height="17.8571" stroke="white" stroke-opacity="0.06" stroke-width="0.357143"/>
<rect x="71.9286" y="0.730408" width="17.8571" height="17.8571" stroke="white" stroke-opacity="0.06" stroke-width="0.357143"/>
<rect x="89.7857" y="0.730408" width="17.8571" height="17.8571" stroke="white" stroke-opacity="0.06" stroke-width="0.357143"/>
<rect x="107.643" y="0.730408" width="17.8571" height="17.8571" stroke="white" stroke-opacity="0.06" stroke-width="0.357143"/>
<rect x="125.5" y="0.730408" width="17.8571" height="17.8571" stroke="white" stroke-opacity="0.06" stroke-width="0.357143"/>
<rect x="143.357" y="0.730408" width="17.8571" height="17.8571" stroke="white" stroke-opacity="0.06" stroke-width="0.357143"/>
<rect x="161.214" y="0.730408" width="17.8571" height="17.8571" stroke="white" stroke-opacity="0.06" stroke-width="0.357143"/>
<rect x="179.071" y="0.730408" width="17.8571" height="17.8571" stroke="white" stroke-opacity="0.06" stroke-width="0.357143"/>
<rect x="196.929" y="0.730408" width="17.8571" height="17.8571" stroke="white" stroke-opacity="0.06" stroke-width="0.357143"/>
<rect x="214.786" y="0.730408" width="17.8571" height="17.8571" stroke="white" stroke-opacity="0.06" stroke-width="0.357143"/>
<rect x="232.643" y="0.730408" width="17.8571" height="17.8571" stroke="white" stroke-opacity="0.06" stroke-width="0.357143"/>
<rect x="250.5" y="0.730408" width="17.8571" height="17.8571" stroke="white" stroke-opacity="0.06" stroke-width="0.357143"/>
<rect x="268.357" y="0.730408" width="17.8571" height="17.8571" stroke="white" stroke-opacity="0.06" stroke-width="0.357143"/>
<rect x="286.214" y="0.730408" width="17.8571" height="17.8571" stroke="white" stroke-opacity="0.06" stroke-width="0.357143"/>
<rect x="304.071" y="0.730408" width="17.8571" height="17.8571" stroke="white" stroke-opacity="0.06" stroke-width="0.357143"/>
<rect x="321.929" y="0.730408" width="17.8571" height="17.8571" stroke="white" stroke-opacity="0.06" stroke-width="0.357143"/>
<rect x="339.786" y="0.730408" width="17.8571" height="17.8571" stroke="white" stroke-opacity="0.06" stroke-width="0.357143"/>
<rect x="357.643" y="0.730408" width="17.8571" height="17.8571" stroke="white" stroke-opacity="0.06" stroke-width="0.357143"/>
<rect x="0.5" y="18.5875" width="17.8571" height="17.8571" stroke="white" stroke-opacity="0.06" stroke-width="0.357143"/>
<rect x="18.3571" y="18.5875" width="17.8571" height="17.8571" stroke="white" stroke-opacity="0.06" stroke-width="0.357143"/>
<rect x="36.2143" y="18.5875" width="17.8571" height="17.8571" fill="white" fill-opacity="0.05" stroke="white" stroke-opacity="0.06" stroke-width="0.357143"/>
<rect x="54.0714" y="18.5875" width="17.8571" height="17.8571" stroke="white" stroke-opacity="0.06" stroke-width="0.357143"/>
<rect x="71.9286" y="18.5875" width="17.8571" height="17.8571" stroke="white" stroke-opacity="0.06" stroke-width="0.357143"/>
<rect x="89.7857" y="18.5875" width="17.8571" height="17.8571" stroke="white" stroke-opacity="0.06" stroke-width="0.357143"/>
<rect x="107.643" y="18.5875" width="17.8571" height="17.8571" stroke="white" stroke-opacity="0.06" stroke-width="0.357143"/>
<rect x="125.5" y="18.5875" width="17.8571" height="17.8571" stroke="white" stroke-opacity="0.06" stroke-width="0.357143"/>
<rect x="143.357" y="18.5875" width="17.8571" height="17.8571" stroke="white" stroke-opacity="0.06" stroke-width="0.357143"/>
<rect x="161.214" y="18.5875" width="17.8571" height="17.8571" fill="white" fill-opacity="0.05" stroke="white" stroke-opacity="0.06" stroke-width="0.357143"/>
<rect x="179.071" y="18.5875" width="17.8571" height="17.8571" stroke="white" stroke-opacity="0.06" stroke-width="0.357143"/>
<rect x="196.929" y="18.5875" width="17.8571" height="17.8571" stroke="white" stroke-opacity="0.06" stroke-width="0.357143"/>
<rect x="214.786" y="18.5875" width="17.8571" height="17.8571" stroke="white" stroke-opacity="0.06" stroke-width="0.357143"/>
<rect x="232.643" y="18.5875" width="17.8571" height="17.8571" stroke="white" stroke-opacity="0.06" stroke-width="0.357143"/>
<rect x="250.5" y="18.5875" width="17.8571" height="17.8571" stroke="white" stroke-opacity="0.06" stroke-width="0.357143"/>
<rect x="268.357" y="18.5875" width="17.8571" height="17.8571" stroke="white" stroke-opacity="0.06" stroke-width="0.357143"/>
<rect x="286.214" y="18.5875" width="17.8571" height="17.8571" stroke="white" stroke-opacity="0.06" stroke-width="0.357143"/>
<rect x="304.071" y="18.5875" width="17.8571" height="17.8571" stroke="white" stroke-opacity="0.06" stroke-width="0.357143"/>
<rect x="321.929" y="18.5875" width="17.8571" height="17.8571" stroke="white" stroke-opacity="0.06" stroke-width="0.357143"/>
<rect x="339.786" y="18.5875" width="17.8571" height="17.8571" stroke="white" stroke-opacity="0.06" stroke-width="0.357143"/>
<rect x="357.643" y="18.5875" width="17.8571" height="17.8571" stroke="white" stroke-opacity="0.06" stroke-width="0.357143"/>
<rect x="0.5" y="36.4447" width="17.8571" height="17.8571" stroke="white" stroke-opacity="0.06" stroke-width="0.357143"/>
<rect x="18.3571" y="36.4447" width="17.8571" height="17.8571" stroke="white" stroke-opacity="0.06" stroke-width="0.357143"/>
<rect x="36.2143" y="36.4447" width="17.8571" height="17.8571" stroke="white" stroke-opacity="0.06" stroke-width="0.357143"/>
<rect x="54.0714" y="36.4447" width="17.8571" height="17.8571" stroke="white" stroke-opacity="0.06" stroke-width="0.357143"/>
<rect x="71.9286" y="36.4447" width="17.8571" height="17.8571" stroke="white" stroke-opacity="0.06" stroke-width="0.357143"/>
<rect x="89.7857" y="36.4447" width="17.8571" height="17.8571" stroke="white" stroke-opacity="0.06" stroke-width="0.357143"/>
<rect x="107.643" y="36.4447" width="17.8571" height="17.8571" stroke="white" stroke-opacity="0.06" stroke-width="0.357143"/>
<rect x="125.5" y="36.4447" width="17.8571" height="17.8571" stroke="white" stroke-opacity="0.06" stroke-width="0.357143"/>
<rect x="143.357" y="36.4447" width="17.8571" height="17.8571" stroke="white" stroke-opacity="0.06" stroke-width="0.357143"/>
<rect x="161.214" y="36.4447" width="17.8571" height="17.8571" stroke="white" stroke-opacity="0.06" stroke-width="0.357143"/>
<rect x="179.071" y="36.4447" width="17.8571" height="17.8571" stroke="white" stroke-opacity="0.06" stroke-width="0.357143"/>
<rect x="196.929" y="36.4447" width="17.8571" height="17.8571" stroke="white" stroke-opacity="0.06" stroke-width="0.357143"/>
<rect x="214.786" y="36.4447" width="17.8571" height="17.8571" stroke="white" stroke-opacity="0.06" stroke-width="0.357143"/>
<rect x="232.643" y="36.4447" width="17.8571" height="17.8571" stroke="white" stroke-opacity="0.06" stroke-width="0.357143"/>
<rect x="250.5" y="36.4447" width="17.8571" height="17.8571" stroke="white" stroke-opacity="0.06" stroke-width="0.357143"/>
<rect x="268.357" y="36.4447" width="17.8571" height="17.8571" stroke="white" stroke-opacity="0.06" stroke-width="0.357143"/>
<rect x="286.214" y="36.4447" width="17.8571" height="17.8571" fill="white" fill-opacity="0.05" stroke="white" stroke-opacity="0.06" stroke-width="0.357143"/>
<rect x="304.071" y="36.4447" width="17.8571" height="17.8571" stroke="white" stroke-opacity="0.06" stroke-width="0.357143"/>
<rect x="321.929" y="36.4447" width="17.8571" height="17.8571" stroke="white" stroke-opacity="0.06" stroke-width="0.357143"/>
<rect x="339.786" y="36.4447" width="17.8571" height="17.8571" stroke="white" stroke-opacity="0.06" stroke-width="0.357143"/>
<rect x="357.643" y="36.4447" width="17.8571" height="17.8571" stroke="white" stroke-opacity="0.06" stroke-width="0.357143"/>
<rect x="0.5" y="54.3018" width="17.8571" height="17.8571" stroke="white" stroke-opacity="0.06" stroke-width="0.357143"/>
<rect x="18.3571" y="54.3018" width="17.8571" height="17.8571" stroke="white" stroke-opacity="0.06" stroke-width="0.357143"/>
<rect x="36.2143" y="54.3018" width="17.8571" height="17.8571" stroke="white" stroke-opacity="0.06" stroke-width="0.357143"/>
<rect x="54.0714" y="54.3018" width="17.8571" height="17.8571" stroke="white" stroke-opacity="0.06" stroke-width="0.357143"/>
<rect x="71.9286" y="54.3018" width="17.8571" height="17.8571" stroke="white" stroke-opacity="0.06" stroke-width="0.357143"/>
<rect x="89.7857" y="54.3018" width="17.8571" height="17.8571" stroke="white" stroke-opacity="0.06" stroke-width="0.357143"/>
<rect x="107.643" y="54.3018" width="17.8571" height="17.8571" stroke="white" stroke-opacity="0.06" stroke-width="0.357143"/>
<rect x="125.5" y="54.3018" width="17.8571" height="17.8571" stroke="white" stroke-opacity="0.06" stroke-width="0.357143"/>
<rect x="143.357" y="54.3018" width="17.8571" height="17.8571" stroke="white" stroke-opacity="0.06" stroke-width="0.357143"/>
<rect x="161.214" y="54.3018" width="17.8571" height="17.8571" stroke="white" stroke-opacity="0.06" stroke-width="0.357143"/>
<rect x="179.071" y="54.3018" width="17.8571" height="17.8571" stroke="white" stroke-opacity="0.06" stroke-width="0.357143"/>
<rect x="196.929" y="54.3018" width="17.8571" height="17.8571" stroke="white" stroke-opacity="0.06" stroke-width="0.357143"/>
<rect x="214.786" y="54.3018" width="17.8571" height="17.8571" stroke="white" stroke-opacity="0.06" stroke-width="0.357143"/>
<rect x="232.643" y="54.3018" width="17.8571" height="17.8571" stroke="white" stroke-opacity="0.06" stroke-width="0.357143"/>
<rect x="250.5" y="54.3018" width="17.8571" height="17.8571" stroke="white" stroke-opacity="0.06" stroke-width="0.357143"/>
<rect x="268.357" y="54.3018" width="17.8571" height="17.8571" stroke="white" stroke-opacity="0.06" stroke-width="0.357143"/>
<rect x="286.214" y="54.3018" width="17.8571" height="17.8571" stroke="white" stroke-opacity="0.06" stroke-width="0.357143"/>
<rect x="304.071" y="54.3018" width="17.8571" height="17.8571" stroke="white" stroke-opacity="0.06" stroke-width="0.357143"/>
<rect x="321.929" y="54.3018" width="17.8571" height="17.8571" stroke="white" stroke-opacity="0.06" stroke-width="0.357143"/>
<rect x="339.786" y="54.3018" width="17.8571" height="17.8571" stroke="white" stroke-opacity="0.06" stroke-width="0.357143"/>
<rect x="357.643" y="54.3018" width="17.8571" height="17.8571" stroke="white" stroke-opacity="0.06" stroke-width="0.357143"/>
<rect x="0.5" y="72.159" width="17.8571" height="17.8571" stroke="white" stroke-opacity="0.06" stroke-width="0.357143"/>
<rect x="18.3571" y="72.159" width="17.8571" height="17.8571" stroke="white" stroke-opacity="0.06" stroke-width="0.357143"/>
<rect x="36.2143" y="72.159" width="17.8571" height="17.8571" stroke="white" stroke-opacity="0.06" stroke-width="0.357143"/>
<rect x="54.0714" y="72.159" width="17.8571" height="17.8571" fill="white" fill-opacity="0.05" stroke="white" stroke-opacity="0.06" stroke-width="0.357143"/>
<rect x="71.9286" y="72.159" width="17.8571" height="17.8571" stroke="white" stroke-opacity="0.06" stroke-width="0.357143"/>
<rect x="89.7857" y="72.159" width="17.8571" height="17.8571" stroke="white" stroke-opacity="0.06" stroke-width="0.357143"/>
<rect x="107.643" y="72.159" width="17.8571" height="17.8571" stroke="white" stroke-opacity="0.06" stroke-width="0.357143"/>
<rect x="125.5" y="72.159" width="17.8571" height="17.8571" stroke="white" stroke-opacity="0.06" stroke-width="0.357143"/>
<rect x="143.357" y="72.159" width="17.8571" height="17.8571" stroke="white" stroke-opacity="0.06" stroke-width="0.357143"/>
<rect x="161.214" y="72.159" width="17.8571" height="17.8571" stroke="white" stroke-opacity="0.06" stroke-width="0.357143"/>
<rect x="179.071" y="72.159" width="17.8571" height="17.8571" stroke="white" stroke-opacity="0.06" stroke-width="0.357143"/>
<rect x="196.929" y="72.159" width="17.8571" height="17.8571" stroke="white" stroke-opacity="0.06" stroke-width="0.357143"/>
<rect x="214.786" y="72.159" width="17.8571" height="17.8571" fill="white" fill-opacity="0.05" stroke="white" stroke-opacity="0.06" stroke-width="0.357143"/>
<rect x="232.643" y="72.159" width="17.8571" height="17.8571" stroke="white" stroke-opacity="0.06" stroke-width="0.357143"/>
<rect x="250.5" y="72.159" width="17.8571" height="17.8571" stroke="white" stroke-opacity="0.06" stroke-width="0.357143"/>
<rect x="268.357" y="72.159" width="17.8571" height="17.8571" stroke="white" stroke-opacity="0.06" stroke-width="0.357143"/>
<rect x="286.214" y="72.159" width="17.8571" height="17.8571" stroke="white" stroke-opacity="0.06" stroke-width="0.357143"/>
<rect x="304.071" y="72.159" width="17.8571" height="17.8571" stroke="white" stroke-opacity="0.06" stroke-width="0.357143"/>
<rect x="321.928" y="72.159" width="17.8571" height="17.8571" stroke="white" stroke-opacity="0.06" stroke-width="0.357143"/>
<rect x="339.786" y="72.159" width="17.8571" height="17.8571" stroke="white" stroke-opacity="0.06" stroke-width="0.357143"/>
<rect x="357.643" y="72.159" width="17.8571" height="17.8571" stroke="white" stroke-opacity="0.06" stroke-width="0.357143"/>
<rect x="0.5" y="90.0161" width="17.8571" height="17.8571" stroke="white" stroke-opacity="0.06" stroke-width="0.357143"/>
<rect x="18.3571" y="90.0161" width="17.8571" height="17.8571" stroke="white" stroke-opacity="0.06" stroke-width="0.357143"/>
<rect x="36.2143" y="90.0161" width="17.8571" height="17.8571" stroke="white" stroke-opacity="0.06" stroke-width="0.357143"/>
<rect x="54.0714" y="90.0161" width="17.8571" height="17.8571" stroke="white" stroke-opacity="0.06" stroke-width="0.357143"/>
<rect x="71.9286" y="90.0161" width="17.8571" height="17.8571" stroke="white" stroke-opacity="0.06" stroke-width="0.357143"/>
<rect x="89.7857" y="90.0161" width="17.8571" height="17.8571" stroke="white" stroke-opacity="0.06" stroke-width="0.357143"/>
<rect x="107.643" y="90.0161" width="17.8571" height="17.8571" stroke="white" stroke-opacity="0.06" stroke-width="0.357143"/>
<rect x="125.5" y="90.0161" width="17.8571" height="17.8571" stroke="white" stroke-opacity="0.06" stroke-width="0.357143"/>
<rect x="143.357" y="90.0161" width="17.8571" height="17.8571" stroke="white" stroke-opacity="0.06" stroke-width="0.357143"/>
<rect x="161.214" y="90.0161" width="17.8571" height="17.8571" stroke="white" stroke-opacity="0.06" stroke-width="0.357143"/>
<rect x="179.071" y="90.0161" width="17.8571" height="17.8571" stroke="white" stroke-opacity="0.06" stroke-width="0.357143"/>
<rect x="196.929" y="90.0161" width="17.8571" height="17.8571" stroke="white" stroke-opacity="0.06" stroke-width="0.357143"/>
<rect x="214.786" y="90.0161" width="17.8571" height="17.8571" stroke="white" stroke-opacity="0.06" stroke-width="0.357143"/>
<rect x="232.643" y="90.0161" width="17.8571" height="17.8571" stroke="white" stroke-opacity="0.06" stroke-width="0.357143"/>
<rect x="250.5" y="90.0161" width="17.8571" height="17.8571" stroke="white" stroke-opacity="0.06" stroke-width="0.357143"/>
<rect x="268.357" y="90.0161" width="17.8571" height="17.8571" stroke="white" stroke-opacity="0.06" stroke-width="0.357143"/>
<rect x="286.214" y="90.0161" width="17.8571" height="17.8571" stroke="white" stroke-opacity="0.06" stroke-width="0.357143"/>
<rect x="304.071" y="90.0161" width="17.8571" height="17.8571" stroke="white" stroke-opacity="0.06" stroke-width="0.357143"/>
<rect x="321.929" y="90.0161" width="17.8571" height="17.8571" fill="white" fill-opacity="0.05" stroke="white" stroke-opacity="0.06" stroke-width="0.357143"/>
<rect x="339.786" y="90.0161" width="17.8571" height="17.8571" stroke="white" stroke-opacity="0.06" stroke-width="0.357143"/>
<rect x="357.643" y="90.0161" width="17.8571" height="17.8571" stroke="white" stroke-opacity="0.06" stroke-width="0.357143"/>
<rect x="0.5" y="107.873" width="17.8571" height="17.8571" stroke="white" stroke-opacity="0.06" stroke-width="0.357143"/>
<rect x="18.3571" y="107.873" width="17.8571" height="17.8571" stroke="white" stroke-opacity="0.06" stroke-width="0.357143"/>
<rect x="36.2143" y="107.873" width="17.8571" height="17.8571" stroke="white" stroke-opacity="0.06" stroke-width="0.357143"/>
<rect x="54.0714" y="107.873" width="17.8571" height="17.8571" stroke="white" stroke-opacity="0.06" stroke-width="0.357143"/>
<rect x="71.9286" y="107.873" width="17.8571" height="17.8571" stroke="white" stroke-opacity="0.06" stroke-width="0.357143"/>
<rect x="89.7857" y="107.873" width="17.8571" height="17.8571" stroke="white" stroke-opacity="0.06" stroke-width="0.357143"/>
<rect x="107.643" y="107.873" width="17.8571" height="17.8571" stroke="white" stroke-opacity="0.06" stroke-width="0.357143"/>
<rect x="125.5" y="107.873" width="17.8571" height="17.8571" stroke="white" stroke-opacity="0.06" stroke-width="0.357143"/>
<rect x="143.357" y="107.873" width="17.8571" height="17.8571" stroke="white" stroke-opacity="0.06" stroke-width="0.357143"/>
<rect x="161.214" y="107.873" width="17.8571" height="17.8571" stroke="white" stroke-opacity="0.06" stroke-width="0.357143"/>
<rect x="179.071" y="107.873" width="17.8571" height="17.8571" stroke="white" stroke-opacity="0.06" stroke-width="0.357143"/>
<rect x="196.929" y="107.873" width="17.8571" height="17.8571" stroke="white" stroke-opacity="0.06" stroke-width="0.357143"/>
<rect x="214.786" y="107.873" width="17.8571" height="17.8571" stroke="white" stroke-opacity="0.06" stroke-width="0.357143"/>
<rect x="232.643" y="107.873" width="17.8571" height="17.8571" stroke="white" stroke-opacity="0.06" stroke-width="0.357143"/>
<rect x="250.5" y="107.873" width="17.8571" height="17.8571" stroke="white" stroke-opacity="0.06" stroke-width="0.357143"/>
<rect x="268.357" y="107.873" width="17.8571" height="17.8571" stroke="white" stroke-opacity="0.06" stroke-width="0.357143"/>
<rect x="286.214" y="107.873" width="17.8571" height="17.8571" stroke="white" stroke-opacity="0.06" stroke-width="0.357143"/>
<rect x="304.071" y="107.873" width="17.8571" height="17.8571" stroke="white" stroke-opacity="0.06" stroke-width="0.357143"/>
<rect x="321.929" y="107.873" width="17.8571" height="17.8571" stroke="white" stroke-opacity="0.06" stroke-width="0.357143"/>
<rect x="339.786" y="107.873" width="17.8571" height="17.8571" stroke="white" stroke-opacity="0.06" stroke-width="0.357143"/>
<rect x="357.643" y="107.873" width="17.8571" height="17.8571" stroke="white" stroke-opacity="0.06" stroke-width="0.357143"/>
<rect x="0.5" y="125.73" width="17.8571" height="17.8571" stroke="white" stroke-opacity="0.06" stroke-width="0.357143"/>
<rect x="18.3571" y="125.73" width="17.8571" height="17.8571" stroke="white" stroke-opacity="0.06" stroke-width="0.357143"/>
<rect x="36.2143" y="125.73" width="17.8571" height="17.8571" stroke="white" stroke-opacity="0.06" stroke-width="0.357143"/>
<rect x="54.0714" y="125.73" width="17.8571" height="17.8571" stroke="white" stroke-opacity="0.06" stroke-width="0.357143"/>
<rect x="71.9286" y="125.73" width="17.8571" height="17.8571" stroke="white" stroke-opacity="0.06" stroke-width="0.357143"/>
<rect x="89.7857" y="125.73" width="17.8571" height="17.8571" stroke="white" stroke-opacity="0.06" stroke-width="0.357143"/>
<rect x="107.643" y="125.73" width="17.8571" height="17.8571" stroke="white" stroke-opacity="0.06" stroke-width="0.357143"/>
<rect x="125.5" y="125.73" width="17.8571" height="17.8571" stroke="white" stroke-opacity="0.06" stroke-width="0.357143"/>
<rect x="143.357" y="125.73" width="17.8571" height="17.8571" fill="white" fill-opacity="0.05" stroke="white" stroke-opacity="0.06" stroke-width="0.357143"/>
<rect x="161.214" y="125.73" width="17.8571" height="17.8571" stroke="white" stroke-opacity="0.06" stroke-width="0.357143"/>
<rect x="179.071" y="125.73" width="17.8571" height="17.8571" stroke="white" stroke-opacity="0.06" stroke-width="0.357143"/>
<rect x="196.929" y="125.73" width="17.8571" height="17.8571" stroke="white" stroke-opacity="0.06" stroke-width="0.357143"/>
<rect x="214.786" y="125.73" width="17.8571" height="17.8571" stroke="white" stroke-opacity="0.06" stroke-width="0.357143"/>
<rect x="232.643" y="125.73" width="17.8571" height="17.8571" stroke="white" stroke-opacity="0.06" stroke-width="0.357143"/>
<rect x="250.5" y="125.73" width="17.8571" height="17.8571" stroke="white" stroke-opacity="0.06" stroke-width="0.357143"/>
<rect x="268.357" y="125.73" width="17.8571" height="17.8571" stroke="white" stroke-opacity="0.06" stroke-width="0.357143"/>
<rect x="286.214" y="125.73" width="17.8571" height="17.8571" stroke="white" stroke-opacity="0.06" stroke-width="0.357143"/>
<rect x="304.071" y="125.73" width="17.8571" height="17.8571" stroke="white" stroke-opacity="0.06" stroke-width="0.357143"/>
<rect x="321.928" y="125.73" width="17.8571" height="17.8571" stroke="white" stroke-opacity="0.06" stroke-width="0.357143"/>
<rect x="339.786" y="125.73" width="17.8571" height="17.8571" stroke="white" stroke-opacity="0.06" stroke-width="0.357143"/>
<rect x="357.643" y="125.73" width="17.8571" height="17.8571" stroke="white" stroke-opacity="0.06" stroke-width="0.357143"/>
<rect x="0.5" y="143.588" width="17.8571" height="17.8571" stroke="white" stroke-opacity="0.06" stroke-width="0.357143"/>
<rect x="18.3571" y="143.588" width="17.8571" height="17.8571" stroke="white" stroke-opacity="0.06" stroke-width="0.357143"/>
<rect x="36.2143" y="143.588" width="17.8571" height="17.8571" stroke="white" stroke-opacity="0.06" stroke-width="0.357143"/>
<rect x="54.0714" y="143.588" width="17.8571" height="17.8571" stroke="white" stroke-opacity="0.06" stroke-width="0.357143"/>
<rect x="71.9286" y="143.588" width="17.8571" height="17.8571" fill="white" fill-opacity="0.05" stroke="white" stroke-opacity="0.06" stroke-width="0.357143"/>
<rect x="89.7857" y="143.588" width="17.8571" height="17.8571" stroke="white" stroke-opacity="0.06" stroke-width="0.357143"/>
<rect x="107.643" y="143.588" width="17.8571" height="17.8571" stroke="white" stroke-opacity="0.06" stroke-width="0.357143"/>
<rect x="125.5" y="143.588" width="17.8571" height="17.8571" stroke="white" stroke-opacity="0.06" stroke-width="0.357143"/>
<rect x="143.357" y="143.588" width="17.8571" height="17.8571" stroke="white" stroke-opacity="0.06" stroke-width="0.357143"/>
<rect x="161.214" y="143.588" width="17.8571" height="17.8571" stroke="white" stroke-opacity="0.06" stroke-width="0.357143"/>
<rect x="179.071" y="143.588" width="17.8571" height="17.8571" stroke="white" stroke-opacity="0.06" stroke-width="0.357143"/>
<rect x="196.929" y="143.588" width="17.8571" height="17.8571" stroke="white" stroke-opacity="0.06" stroke-width="0.357143"/>
<rect x="214.786" y="143.588" width="17.8571" height="17.8571" stroke="white" stroke-opacity="0.06" stroke-width="0.357143"/>
<rect x="232.643" y="143.588" width="17.8571" height="17.8571" stroke="white" stroke-opacity="0.06" stroke-width="0.357143"/>
<rect x="250.5" y="143.588" width="17.8571" height="17.8571" stroke="white" stroke-opacity="0.06" stroke-width="0.357143"/>
<rect x="268.357" y="143.588" width="17.8571" height="17.8571" stroke="white" stroke-opacity="0.06" stroke-width="0.357143"/>
<rect x="286.214" y="143.588" width="17.8571" height="17.8571" stroke="white" stroke-opacity="0.06" stroke-width="0.357143"/>
<rect x="304.071" y="143.588" width="17.8571" height="17.8571" stroke="white" stroke-opacity="0.06" stroke-width="0.357143"/>
<rect x="321.929" y="143.588" width="17.8571" height="17.8571" stroke="white" stroke-opacity="0.06" stroke-width="0.357143"/>
<rect x="339.786" y="143.588" width="17.8571" height="17.8571" stroke="white" stroke-opacity="0.06" stroke-width="0.357143"/>
<rect x="357.643" y="143.588" width="17.8571" height="17.8571" stroke="white" stroke-opacity="0.06" stroke-width="0.357143"/>
<rect x="0.5" y="161.445" width="17.8571" height="17.8571" stroke="white" stroke-opacity="0.06" stroke-width="0.357143"/>
<rect x="18.3571" y="161.445" width="17.8571" height="17.8571" stroke="white" stroke-opacity="0.06" stroke-width="0.357143"/>
<rect x="36.2143" y="161.445" width="17.8571" height="17.8571" stroke="white" stroke-opacity="0.06" stroke-width="0.357143"/>
<rect x="54.0714" y="161.445" width="17.8571" height="17.8571" stroke="white" stroke-opacity="0.06" stroke-width="0.357143"/>
<rect x="71.9286" y="161.445" width="17.8571" height="17.8571" stroke="white" stroke-opacity="0.06" stroke-width="0.357143"/>
<rect x="89.7857" y="161.445" width="17.8571" height="17.8571" stroke="white" stroke-opacity="0.06" stroke-width="0.357143"/>
<rect x="107.643" y="161.445" width="17.8571" height="17.8571" stroke="white" stroke-opacity="0.06" stroke-width="0.357143"/>
<rect x="125.5" y="161.445" width="17.8571" height="17.8571" stroke="white" stroke-opacity="0.06" stroke-width="0.357143"/>
<rect x="143.357" y="161.445" width="17.8571" height="17.8571" stroke="white" stroke-opacity="0.06" stroke-width="0.357143"/>
<rect x="161.214" y="161.445" width="17.8571" height="17.8571" stroke="white" stroke-opacity="0.06" stroke-width="0.357143"/>
<rect x="179.071" y="161.445" width="17.8571" height="17.8571" stroke="white" stroke-opacity="0.06" stroke-width="0.357143"/>
<rect x="196.929" y="161.445" width="17.8571" height="17.8571" stroke="white" stroke-opacity="0.06" stroke-width="0.357143"/>
<rect x="214.786" y="161.445" width="17.8571" height="17.8571" stroke="white" stroke-opacity="0.06" stroke-width="0.357143"/>
<rect x="232.643" y="161.445" width="17.8571" height="17.8571" stroke="white" stroke-opacity="0.06" stroke-width="0.357143"/>
<rect x="250.5" y="161.445" width="17.8571" height="17.8571" stroke="white" stroke-opacity="0.06" stroke-width="0.357143"/>
<rect x="268.357" y="161.445" width="17.8571" height="17.8571" stroke="white" stroke-opacity="0.06" stroke-width="0.357143"/>
<rect x="286.214" y="161.445" width="17.8571" height="17.8571" stroke="white" stroke-opacity="0.06" stroke-width="0.357143"/>
<rect x="304.071" y="161.445" width="17.8571" height="17.8571" stroke="white" stroke-opacity="0.06" stroke-width="0.357143"/>
<rect x="321.929" y="161.445" width="17.8571" height="17.8571" stroke="white" stroke-opacity="0.06" stroke-width="0.357143"/>
<rect x="339.786" y="161.445" width="17.8571" height="17.8571" stroke="white" stroke-opacity="0.06" stroke-width="0.357143"/>
<rect x="357.643" y="161.445" width="17.8571" height="17.8571" stroke="white" stroke-opacity="0.06" stroke-width="0.357143"/>
<rect x="0.5" y="179.302" width="17.8571" height="17.8571" stroke="white" stroke-opacity="0.06" stroke-width="0.357143"/>
<rect x="18.3571" y="179.302" width="17.8571" height="17.8571" stroke="white" stroke-opacity="0.06" stroke-width="0.357143"/>
<rect x="36.2143" y="179.302" width="17.8571" height="17.8571" stroke="white" stroke-opacity="0.06" stroke-width="0.357143"/>
<rect x="54.0714" y="179.302" width="17.8571" height="17.8571" stroke="white" stroke-opacity="0.06" stroke-width="0.357143"/>
<rect x="71.9286" y="179.302" width="17.8571" height="17.8571" stroke="white" stroke-opacity="0.06" stroke-width="0.357143"/>
<rect x="89.7857" y="179.302" width="17.8571" height="17.8571" stroke="white" stroke-opacity="0.06" stroke-width="0.357143"/>
<rect x="107.643" y="179.302" width="17.8571" height="17.8571" stroke="white" stroke-opacity="0.06" stroke-width="0.357143"/>
<rect x="125.5" y="179.302" width="17.8571" height="17.8571" stroke="white" stroke-opacity="0.06" stroke-width="0.357143"/>
<rect x="143.357" y="179.302" width="17.8571" height="17.8571" stroke="white" stroke-opacity="0.06" stroke-width="0.357143"/>
<rect x="161.214" y="179.302" width="17.8571" height="17.8571" stroke="white" stroke-opacity="0.06" stroke-width="0.357143"/>
<rect x="179.071" y="179.302" width="17.8571" height="17.8571" stroke="white" stroke-opacity="0.06" stroke-width="0.357143"/>
<rect x="196.929" y="179.302" width="17.8571" height="17.8571" stroke="white" stroke-opacity="0.06" stroke-width="0.357143"/>
<rect x="214.786" y="179.302" width="17.8571" height="17.8571" stroke="white" stroke-opacity="0.06" stroke-width="0.357143"/>
<rect x="232.643" y="179.302" width="17.8571" height="17.8571" stroke="white" stroke-opacity="0.06" stroke-width="0.357143"/>
<rect x="250.5" y="179.302" width="17.8571" height="17.8571" stroke="white" stroke-opacity="0.06" stroke-width="0.357143"/>
<rect x="268.357" y="179.302" width="17.8571" height="17.8571" stroke="white" stroke-opacity="0.06" stroke-width="0.357143"/>
<rect x="286.214" y="179.302" width="17.8571" height="17.8571" stroke="white" stroke-opacity="0.06" stroke-width="0.357143"/>
<rect x="304.071" y="179.302" width="17.8571" height="17.8571" stroke="white" stroke-opacity="0.06" stroke-width="0.357143"/>
<rect x="321.929" y="179.302" width="17.8571" height="17.8571" stroke="white" stroke-opacity="0.06" stroke-width="0.357143"/>
<rect x="339.786" y="179.302" width="17.8571" height="17.8571" stroke="white" stroke-opacity="0.06" stroke-width="0.357143"/>
<rect x="357.643" y="179.302" width="17.8571" height="17.8571" stroke="white" stroke-opacity="0.06" stroke-width="0.357143"/>
<rect x="0.5" y="197.159" width="17.8571" height="17.8571" stroke="white" stroke-opacity="0.06" stroke-width="0.357143"/>
<rect x="18.3571" y="197.159" width="17.8571" height="17.8571" stroke="white" stroke-opacity="0.06" stroke-width="0.357143"/>
<rect x="36.2143" y="197.159" width="17.8571" height="17.8571" stroke="white" stroke-opacity="0.06" stroke-width="0.357143"/>
<rect x="54.0714" y="197.159" width="17.8571" height="17.8571" stroke="white" stroke-opacity="0.06" stroke-width="0.357143"/>
<rect x="71.9286" y="197.159" width="17.8571" height="17.8571" stroke="white" stroke-opacity="0.06" stroke-width="0.357143"/>
<rect x="89.7857" y="197.159" width="17.8571" height="17.8571" stroke="white" stroke-opacity="0.06" stroke-width="0.357143"/>
<rect x="107.643" y="197.159" width="17.8571" height="17.8571" stroke="white" stroke-opacity="0.06" stroke-width="0.357143"/>
<rect x="125.5" y="197.159" width="17.8571" height="17.8571" stroke="white" stroke-opacity="0.06" stroke-width="0.357143"/>
<rect x="143.357" y="197.159" width="17.8571" height="17.8571" stroke="white" stroke-opacity="0.06" stroke-width="0.357143"/>
<rect x="161.214" y="197.159" width="17.8571" height="17.8571" stroke="white" stroke-opacity="0.06" stroke-width="0.357143"/>
<rect x="179.071" y="197.159" width="17.8571" height="17.8571" stroke="white" stroke-opacity="0.06" stroke-width="0.357143"/>
<rect x="196.929" y="197.159" width="17.8571" height="17.8571" stroke="white" stroke-opacity="0.06" stroke-width="0.357143"/>
<rect x="214.786" y="197.159" width="17.8571" height="17.8571" stroke="white" stroke-opacity="0.06" stroke-width="0.357143"/>
<rect x="232.643" y="197.159" width="17.8571" height="17.8571" stroke="white" stroke-opacity="0.06" stroke-width="0.357143"/>
<rect x="250.5" y="197.159" width="17.8571" height="17.8571" stroke="white" stroke-opacity="0.06" stroke-width="0.357143"/>
<rect x="268.357" y="197.159" width="17.8571" height="17.8571" stroke="white" stroke-opacity="0.06" stroke-width="0.357143"/>
<rect x="286.214" y="197.159" width="17.8571" height="17.8571" stroke="white" stroke-opacity="0.06" stroke-width="0.357143"/>
<rect x="304.071" y="197.159" width="17.8571" height="17.8571" stroke="white" stroke-opacity="0.06" stroke-width="0.357143"/>
<rect x="321.929" y="197.159" width="17.8571" height="17.8571" stroke="white" stroke-opacity="0.06" stroke-width="0.357143"/>
<rect x="339.786" y="197.159" width="17.8571" height="17.8571" stroke="white" stroke-opacity="0.06" stroke-width="0.357143"/>
<rect x="357.643" y="197.159" width="17.8571" height="17.8571" stroke="white" stroke-opacity="0.06" stroke-width="0.357143"/>
<rect x="0.5" y="215.016" width="17.8571" height="17.8571" stroke="white" stroke-opacity="0.06" stroke-width="0.357143"/>
<rect x="18.3571" y="215.016" width="17.8571" height="17.8571" stroke="white" stroke-opacity="0.06" stroke-width="0.357143"/>
<rect x="36.2143" y="215.016" width="17.8571" height="17.8571" stroke="white" stroke-opacity="0.06" stroke-width="0.357143"/>
<rect x="54.0714" y="215.016" width="17.8571" height="17.8571" stroke="white" stroke-opacity="0.06" stroke-width="0.357143"/>
<rect x="71.9286" y="215.016" width="17.8571" height="17.8571" stroke="white" stroke-opacity="0.06" stroke-width="0.357143"/>
<rect x="89.7857" y="215.016" width="17.8571" height="17.8571" stroke="white" stroke-opacity="0.06" stroke-width="0.357143"/>
<rect x="107.643" y="215.016" width="17.8571" height="17.8571" stroke="white" stroke-opacity="0.06" stroke-width="0.357143"/>
<rect x="125.5" y="215.016" width="17.8571" height="17.8571" stroke="white" stroke-opacity="0.06" stroke-width="0.357143"/>
<rect x="143.357" y="215.016" width="17.8571" height="17.8571" stroke="white" stroke-opacity="0.06" stroke-width="0.357143"/>
<rect x="161.214" y="215.016" width="17.8571" height="17.8571" stroke="white" stroke-opacity="0.06" stroke-width="0.357143"/>
<rect x="179.071" y="215.016" width="17.8571" height="17.8571" stroke="white" stroke-opacity="0.06" stroke-width="0.357143"/>
<rect x="196.929" y="215.016" width="17.8571" height="17.8571" stroke="white" stroke-opacity="0.06" stroke-width="0.357143"/>
<rect x="214.786" y="215.016" width="17.8571" height="17.8571" stroke="white" stroke-opacity="0.06" stroke-width="0.357143"/>
<rect x="232.643" y="215.016" width="17.8571" height="17.8571" stroke="white" stroke-opacity="0.06" stroke-width="0.357143"/>
<rect x="250.5" y="215.016" width="17.8571" height="17.8571" stroke="white" stroke-opacity="0.06" stroke-width="0.357143"/>
<rect x="268.357" y="215.016" width="17.8571" height="17.8571" stroke="white" stroke-opacity="0.06" stroke-width="0.357143"/>
<rect x="286.214" y="215.016" width="17.8571" height="17.8571" stroke="white" stroke-opacity="0.06" stroke-width="0.357143"/>
<rect x="304.071" y="215.016" width="17.8571" height="17.8571" stroke="white" stroke-opacity="0.06" stroke-width="0.357143"/>
<rect x="321.929" y="215.016" width="17.8571" height="17.8571" stroke="white" stroke-opacity="0.06" stroke-width="0.357143"/>
<rect x="339.786" y="215.016" width="17.8571" height="17.8571" stroke="white" stroke-opacity="0.06" stroke-width="0.357143"/>
<rect x="357.643" y="215.016" width="17.8571" height="17.8571" stroke="white" stroke-opacity="0.06" stroke-width="0.357143"/>
</g>
</svg>
