<svg width="205" height="40" viewBox="0 0 205 40" fill="none" xmlns="http://www.w3.org/2000/svg">
<rect x="24" y="1.47626" width="157" height="37" rx="18.5" fill="url(#paint0_linear_39_78)"/>
<rect x="24" y="1.47626" width="157" height="37" rx="18.5" stroke="url(#paint1_linear_39_78)" stroke-width="2"/>
<path d="M47.99 19.5763C47.99 18.6149 48.2047 17.7563 48.634 17.0003C49.0727 16.2349 49.6653 15.6423 50.412 15.2223C51.168 14.7929 52.0127 14.5783 52.946 14.5783C54.038 14.5783 54.9947 14.8583 55.816 15.4183C56.6373 15.9783 57.2113 16.7529 57.538 17.7423H55.284C55.06 17.2756 54.7427 16.9256 54.332 16.6923C53.9307 16.4589 53.464 16.3423 52.932 16.3423C52.3627 16.3423 51.854 16.4776 51.406 16.7483C50.9673 17.0096 50.622 17.3829 50.37 17.8683C50.1273 18.3536 50.006 18.9229 50.006 19.5763C50.006 20.2203 50.1273 20.7896 50.37 21.2843C50.622 21.7696 50.9673 22.1476 51.406 22.4183C51.854 22.6796 52.3627 22.8103 52.932 22.8103C53.464 22.8103 53.9307 22.6936 54.332 22.4603C54.7427 22.2176 55.06 21.8629 55.284 21.3963H57.538C57.2113 22.3949 56.6373 23.1743 55.816 23.7343C55.004 24.2849 54.0473 24.5603 52.946 24.5603C52.0127 24.5603 51.168 24.3503 50.412 23.9303C49.6653 23.5009 49.0727 22.9083 48.634 22.1523C48.2047 21.3963 47.99 20.5376 47.99 19.5763ZM62.6561 24.6023C61.9094 24.6023 61.2374 24.4389 60.6401 24.1123C60.0428 23.7763 59.5714 23.3049 59.2261 22.6983C58.8901 22.0916 58.7221 21.3916 58.7221 20.5983C58.7221 19.8049 58.8948 19.1049 59.2401 18.4983C59.5948 17.8916 60.0754 17.4249 60.6821 17.0983C61.2888 16.7623 61.9654 16.5943 62.7121 16.5943C63.4588 16.5943 64.1354 16.7623 64.7421 17.0983C65.3488 17.4249 65.8248 17.8916 66.1701 18.4983C66.5248 19.1049 66.7021 19.8049 66.7021 20.5983C66.7021 21.3916 66.5201 22.0916 66.1561 22.6983C65.8014 23.3049 65.3161 23.7763 64.7001 24.1123C64.0934 24.4389 63.4121 24.6023 62.6561 24.6023ZM62.6561 22.8943C63.0108 22.8943 63.3421 22.8103 63.6501 22.6423C63.9674 22.4649 64.2194 22.2036 64.4061 21.8583C64.5928 21.5129 64.6861 21.0929 64.6861 20.5983C64.6861 19.8609 64.4901 19.2963 64.0981 18.9043C63.7154 18.5029 63.2441 18.3023 62.6841 18.3023C62.1241 18.3023 61.6528 18.5029 61.2701 18.9043C60.8968 19.2963 60.7101 19.8609 60.7101 20.5983C60.7101 21.3356 60.8921 21.9049 61.2561 22.3063C61.6294 22.6983 62.0961 22.8943 62.6561 22.8943ZM72.4378 16.6083C73.3618 16.6083 74.1085 16.9023 74.6778 17.4903C75.2472 18.0689 75.5318 18.8809 75.5318 19.9263V24.4763H73.5718V20.1923C73.5718 19.5763 73.4178 19.1049 73.1098 18.7783C72.8018 18.4423 72.3818 18.2743 71.8498 18.2743C71.3085 18.2743 70.8792 18.4423 70.5618 18.7783C70.2538 19.1049 70.0998 19.5763 70.0998 20.1923V24.4763H68.1398V16.7203H70.0998V17.6863C70.3612 17.3503 70.6925 17.0889 71.0938 16.9023C71.5045 16.7063 71.9525 16.6083 72.4378 16.6083ZM81.6937 16.6083C82.6177 16.6083 83.3644 16.9023 83.9337 17.4903C84.503 18.0689 84.7877 18.8809 84.7877 19.9263V24.4763H82.8277V20.1923C82.8277 19.5763 82.6737 19.1049 82.3657 18.7783C82.0577 18.4423 81.6377 18.2743 81.1057 18.2743C80.5644 18.2743 80.135 18.4423 79.8177 18.7783C79.5097 19.1049 79.3557 19.5763 79.3557 20.1923V24.4763H77.3957V16.7203H79.3557V17.6863C79.617 17.3503 79.9484 17.0889 80.3497 16.9023C80.7604 16.7063 81.2084 16.6083 81.6937 16.6083ZM93.8615 20.4303C93.8615 20.7103 93.8429 20.9623 93.8055 21.1863H88.1355C88.1822 21.7463 88.3782 22.1849 88.7235 22.5023C89.0689 22.8196 89.4935 22.9783 89.9975 22.9783C90.7255 22.9783 91.2435 22.6656 91.5515 22.0403H93.6655C93.4415 22.7869 93.0122 23.4029 92.3775 23.8883C91.7429 24.3643 90.9635 24.6023 90.0395 24.6023C89.2929 24.6023 88.6209 24.4389 88.0235 24.1123C87.4355 23.7763 86.9735 23.3049 86.6375 22.6983C86.3109 22.0916 86.1475 21.3916 86.1475 20.5983C86.1475 19.7956 86.3109 19.0909 86.6375 18.4843C86.9642 17.8776 87.4215 17.4109 88.0095 17.0843C88.5975 16.7576 89.2742 16.5943 90.0395 16.5943C90.7769 16.5943 91.4349 16.7529 92.0135 17.0703C92.6015 17.3876 93.0542 17.8403 93.3715 18.4283C93.6982 19.0069 93.8615 19.6743 93.8615 20.4303ZM91.8315 19.8703C91.8222 19.3663 91.6402 18.9649 91.2855 18.6663C90.9309 18.3583 90.4969 18.2043 89.9835 18.2043C89.4982 18.2043 89.0875 18.3536 88.7515 18.6523C88.4249 18.9416 88.2242 19.3476 88.1495 19.8703H91.8315ZM94.7882 20.5983C94.7882 19.7956 94.9515 19.0956 95.2782 18.4983C95.6048 17.8916 96.0575 17.4249 96.6362 17.0983C97.2148 16.7623 97.8775 16.5943 98.6242 16.5943C99.5855 16.5943 100.379 16.8369 101.004 17.3223C101.639 17.7983 102.064 18.4703 102.278 19.3383H100.164C100.052 19.0023 99.8608 18.7409 99.5902 18.5543C99.3288 18.3583 99.0022 18.2603 98.6102 18.2603C98.0502 18.2603 97.6068 18.4656 97.2802 18.8763C96.9535 19.2776 96.7902 19.8516 96.7902 20.5983C96.7902 21.3356 96.9535 21.9096 97.2802 22.3203C97.6068 22.7216 98.0502 22.9223 98.6102 22.9223C99.4035 22.9223 99.9215 22.5676 100.164 21.8583H102.278C102.064 22.6983 101.639 23.3656 101.004 23.8603C100.37 24.3549 99.5762 24.6023 98.6242 24.6023C97.8775 24.6023 97.2148 24.4389 96.6362 24.1123C96.0575 23.7763 95.6048 23.3096 95.2782 22.7123C94.9515 22.1056 94.7882 21.4009 94.7882 20.5983ZM105.996 18.3303V22.0823C105.996 22.3436 106.057 22.5349 106.178 22.6563C106.309 22.7683 106.523 22.8243 106.822 22.8243H107.732V24.4763H106.5C104.848 24.4763 104.022 23.6736 104.022 22.0683V18.3303H103.098V16.7203H104.022V14.8023H105.996V16.7203H107.732V18.3303H105.996ZM125.54 14.7043L122.81 24.4763H120.5L118.666 17.5183L116.748 24.4763L114.452 24.4903L111.82 14.7043H113.92L115.642 22.2923L117.63 14.7043H119.814L121.69 22.2503L123.426 14.7043H125.54ZM126.316 20.5703C126.316 19.7863 126.47 19.0909 126.778 18.4843C127.095 17.8776 127.52 17.4109 128.052 17.0843C128.593 16.7576 129.195 16.5943 129.858 16.5943C130.436 16.5943 130.94 16.7109 131.37 16.9443C131.808 17.1776 132.158 17.4716 132.42 17.8263V16.7203H134.394V24.4763H132.42V23.3423C132.168 23.7063 131.818 24.0096 131.37 24.2523C130.931 24.4856 130.422 24.6023 129.844 24.6023C129.19 24.6023 128.593 24.4343 128.052 24.0983C127.52 23.7623 127.095 23.2909 126.778 22.6843C126.47 22.0683 126.316 21.3636 126.316 20.5703ZM132.42 20.5983C132.42 20.1223 132.326 19.7163 132.14 19.3803C131.953 19.0349 131.701 18.7736 131.384 18.5963C131.066 18.4096 130.726 18.3163 130.362 18.3163C129.998 18.3163 129.662 18.4049 129.354 18.5823C129.046 18.7596 128.794 19.0209 128.598 19.3663C128.411 19.7023 128.318 20.1036 128.318 20.5703C128.318 21.0369 128.411 21.4476 128.598 21.8023C128.794 22.1476 129.046 22.4136 129.354 22.6003C129.671 22.7869 130.007 22.8803 130.362 22.8803C130.726 22.8803 131.066 22.7916 131.384 22.6143C131.701 22.4276 131.953 22.1663 132.14 21.8303C132.326 21.4849 132.42 21.0743 132.42 20.5983ZM138.268 14.1163V24.4763H136.308V14.1163H138.268ZM142.164 14.1163V24.4763H140.204V14.1163H142.164ZM151.311 20.4303C151.311 20.7103 151.292 20.9623 151.255 21.1863H145.585C145.631 21.7463 145.827 22.1849 146.173 22.5023C146.518 22.8196 146.943 22.9783 147.447 22.9783C148.175 22.9783 148.693 22.6656 149.001 22.0403H151.115C150.891 22.7869 150.461 23.4029 149.827 23.8883C149.192 24.3643 148.413 24.6023 147.489 24.6023C146.742 24.6023 146.07 24.4389 145.473 24.1123C144.885 23.7763 144.423 23.3049 144.087 22.6983C143.76 22.0916 143.597 21.3916 143.597 20.5983C143.597 19.7956 143.76 19.0909 144.087 18.4843C144.413 17.8776 144.871 17.4109 145.459 17.0843C146.047 16.7576 146.723 16.5943 147.489 16.5943C148.226 16.5943 148.884 16.7529 149.463 17.0703C150.051 17.3876 150.503 17.8403 150.821 18.4283C151.147 19.0069 151.311 19.6743 151.311 20.4303ZM149.281 19.8703C149.271 19.3663 149.089 18.9649 148.735 18.6663C148.38 18.3583 147.946 18.2043 147.433 18.2043C146.947 18.2043 146.537 18.3536 146.201 18.6523C145.874 18.9416 145.673 19.3476 145.599 19.8703H149.281ZM155.023 18.3303V22.0823C155.023 22.3436 155.084 22.5349 155.205 22.6563C155.336 22.7683 155.551 22.8243 155.849 22.8243H156.759V24.4763H155.527C153.875 24.4763 153.049 23.6736 153.049 22.0683V18.3303H152.125V16.7203H153.049V14.8023H155.023V16.7203H156.759V18.3303H155.023Z" fill="#13201F"/>
<rect opacity="0.4" x="46" y="37.4763" width="113.385" height="2" fill="url(#paint2_linear_39_78)"/>
<rect opacity="0.4" y="0.476257" width="204.436" height="2" fill="url(#paint3_linear_39_78)"/>
<defs>
<linearGradient id="paint0_linear_39_78" x1="104.165" y1="0.476257" x2="104.165" y2="39.4763" gradientUnits="userSpaceOnUse">
<stop stop-color="#8FFF11"/>
<stop offset="1" stop-color="#56AB28"/>
</linearGradient>
<linearGradient id="paint1_linear_39_78" x1="102.5" y1="0.476257" x2="102.5" y2="39.4763" gradientUnits="userSpaceOnUse">
<stop stop-color="#88FF46"/>
<stop offset="1" stop-color="#71D839"/>
</linearGradient>
<linearGradient id="paint2_linear_39_78" x1="46" y1="38.4762" x2="159.385" y2="38.4763" gradientUnits="userSpaceOnUse">
<stop offset="0.24597" stop-color="#5AFF00" stop-opacity="0"/>
<stop offset="0.53125" stop-color="#5AFF00"/>
<stop offset="0.816002" stop-color="#5AFF00" stop-opacity="0"/>
</linearGradient>
<linearGradient id="paint3_linear_39_78" x1="1.33279e-06" y1="1.47621" x2="204.436" y2="1.47635" gradientUnits="userSpaceOnUse">
<stop offset="0.24597" stop-color="#5AFF00" stop-opacity="0"/>
<stop offset="0.53125" stop-color="#5AFF00"/>
<stop offset="0.816002" stop-color="#5AFF00" stop-opacity="0"/>
</linearGradient>
</defs>
</svg>
